<svg xmlns="http://www.w3.org/2000/svg" xmlns:xlink="http://www.w3.org/1999/xlink" width="755" zoomAndPan="magnify" viewBox="0 0 567 425.249996" height="566" preserveAspectRatio="xMidYMid meet" version="1.0"><defs><clipPath id="3a579e1f36"><path d="M 254 6.011719 L 566.5 6.011719 L 566.5 418.535156 L 254 418.535156 Z M 254 6.011719 " clip-rule="nonzero"/></clipPath><clipPath id="1dc10c1a92"><path d="M 546 6.011719 L 566.5 6.011719 L 566.5 418.535156 L 546 418.535156 Z M 546 6.011719 " clip-rule="nonzero"/></clipPath><clipPath id="e512238277"><path d="M 254 6.011719 L 566.5 6.011719 L 566.5 26 L 254 26 Z M 254 6.011719 " clip-rule="nonzero"/></clipPath><clipPath id="c7f37e1344"><path d="M 254 399 L 566.5 399 L 566.5 418.535156 L 254 418.535156 Z M 254 399 " clip-rule="nonzero"/></clipPath><clipPath id="774a911ff2"><path d="M 0.5 25 L 274 25 L 274 400 L 0.5 400 Z M 0.5 25 " clip-rule="nonzero"/></clipPath></defs><g clip-path="url(#3a579e1f36)"><path fill="#e9e9e9" d="M 566.421875 418.570312 L 254.28125 418.570312 L 254.28125 6.066406 L 566.421875 6.066406 L 566.421875 418.570312 " fill-opacity="1" fill-rule="nonzero"/></g><path fill="#4f4c4c" d="M 546.914062 399.351562 L 273.789062 399.351562 L 273.789062 25.28125 L 546.914062 25.28125 L 546.914062 399.351562 " fill-opacity="1" fill-rule="nonzero"/><path fill="#393536" d="M 488.390625 360.066406 L 332.316406 360.066406 L 332.316406 65.421875 L 488.390625 65.421875 L 488.390625 360.066406 " fill-opacity="1" fill-rule="nonzero"/><g clip-path="url(#1dc10c1a92)"><path fill="#bdbcbc" d="M 566.421875 418.570312 L 546.914062 399.351562 L 546.914062 25.28125 L 566.421875 6.066406 L 566.421875 418.570312 " fill-opacity="1" fill-rule="nonzero"/></g><g clip-path="url(#e512238277)"><path fill="#f4f4f4" d="M 254.28125 6.066406 L 273.789062 25.28125 L 546.914062 25.28125 L 566.421875 6.066406 L 254.28125 6.066406 " fill-opacity="1" fill-rule="nonzero"/></g><g clip-path="url(#c7f37e1344)"><path fill="#a7a5a6" d="M 566.421875 418.570312 L 546.914062 399.351562 L 273.789062 399.351562 L 254.28125 418.570312 L 566.421875 418.570312 " fill-opacity="1" fill-rule="nonzero"/></g><g clip-path="url(#774a911ff2)"><path fill="#a7a5a6" d="M 0.667969 399.351562 L 273.789062 399.351562 L 273.789062 25.28125 L 0.667969 25.28125 L 0.667969 399.351562 " fill-opacity="1" fill-rule="nonzero"/></g><path fill="#e9e9e9" d="M 54.839844 187.179688 C 70.640625 187.179688 84.003906 197.617188 88.40625 211.96875 C 89.414062 215.234375 89.953125 218.699219 89.953125 222.296875 C 89.953125 225.886719 89.414062 229.351562 88.410156 232.617188 C 84.003906 246.972656 70.640625 257.414062 54.839844 257.414062 C 35.449219 257.414062 19.726562 241.6875 19.726562 222.296875 C 19.726562 202.902344 35.449219 187.179688 54.839844 187.179688 " fill-opacity="1" fill-rule="nonzero"/><path fill="#a7a5a6" d="M 21.679688 222.296875 C 21.679688 240.609375 36.527344 255.464844 54.839844 255.464844 C 73.15625 255.464844 88.003906 240.609375 88.003906 222.296875 C 88.003906 203.976562 73.15625 189.128906 54.839844 189.128906 C 36.527344 189.128906 21.679688 203.976562 21.679688 222.296875 " fill-opacity="1" fill-rule="nonzero"/><path fill="#918f8f" d="M 51.003906 255.242188 L 49.90625 255.101562 L 58.679688 189.347656 L 59.777344 189.492188 L 51.003906 255.242188 " fill-opacity="1" fill-rule="nonzero"/><path fill="#918f8f" d="M 42.609375 253.128906 L 41.585938 252.699219 L 67.070312 191.457031 L 68.097656 191.886719 L 42.609375 253.128906 " fill-opacity="1" fill-rule="nonzero"/><path fill="#918f8f" d="M 35.046875 248.910156 L 34.167969 248.234375 L 74.636719 195.675781 L 75.519531 196.351562 L 35.046875 248.910156 " fill-opacity="1" fill-rule="nonzero"/><path fill="#918f8f" d="M 28.832031 242.882812 L 28.160156 242 L 80.847656 201.710938 L 81.523438 202.589844 L 28.832031 242.882812 " fill-opacity="1" fill-rule="nonzero"/><path fill="#918f8f" d="M 24.390625 235.441406 L 23.96875 234.421875 L 85.292969 209.144531 L 85.71875 210.167969 L 24.390625 235.441406 " fill-opacity="1" fill-rule="nonzero"/><path fill="#918f8f" d="M 22.023438 227.117188 L 21.878906 226.015625 L 87.660156 217.472656 L 87.800781 218.574219 L 22.023438 227.117188 " fill-opacity="1" fill-rule="nonzero"/><path fill="#918f8f" d="M 87.640625 227.234375 L 21.890625 218.457031 L 22.039062 217.355469 L 87.789062 226.132812 L 87.640625 227.234375 " fill-opacity="1" fill-rule="nonzero"/><path fill="#918f8f" d="M 85.246094 235.554688 L 24.011719 210.058594 L 24.433594 209.035156 L 85.675781 234.527344 L 85.246094 235.554688 " fill-opacity="1" fill-rule="nonzero"/><path fill="#918f8f" d="M 80.78125 242.972656 L 28.222656 202.496094 L 28.898438 201.617188 L 81.457031 242.089844 L 80.78125 242.972656 " fill-opacity="1" fill-rule="nonzero"/><path fill="#918f8f" d="M 74.542969 248.984375 L 34.257812 196.277344 L 35.140625 195.605469 L 75.425781 248.308594 L 74.542969 248.984375 " fill-opacity="1" fill-rule="nonzero"/><path fill="#918f8f" d="M 66.96875 253.171875 L 41.695312 191.839844 L 42.71875 191.414062 L 67.988281 252.753906 L 66.96875 253.171875 " fill-opacity="1" fill-rule="nonzero"/><path fill="#918f8f" d="M 58.5625 255.261719 L 50.019531 189.46875 L 51.121094 189.328125 L 59.660156 255.117188 L 58.5625 255.261719 " fill-opacity="1" fill-rule="nonzero"/><path fill="#7b7979" d="M 29.480469 222.296875 C 29.480469 236.304688 40.835938 247.65625 54.839844 247.65625 C 68.847656 247.65625 80.203125 236.304688 80.203125 222.296875 C 80.203125 208.285156 68.847656 196.933594 54.839844 196.933594 C 40.835938 196.933594 29.480469 208.285156 29.480469 222.296875 " fill-opacity="1" fill-rule="nonzero"/><path fill="#4f4c4c" d="M 35.332031 222.296875 C 35.332031 233.070312 44.066406 241.804688 54.839844 241.804688 C 65.617188 241.804688 74.347656 233.070312 74.347656 222.296875 C 74.347656 211.519531 65.617188 202.78125 54.839844 202.78125 C 44.066406 202.78125 35.332031 211.519531 35.332031 222.296875 " fill-opacity="1" fill-rule="nonzero"/><path fill="#bdbcbc" d="M 527.40625 164.058594 L 293.300781 164.058594 L 293.300781 143.996094 L 527.40625 143.996094 L 527.40625 164.058594 " fill-opacity="1" fill-rule="nonzero"/><path fill="#bdbcbc" d="M 527.40625 301.5625 L 293.300781 301.5625 L 293.300781 281.492188 L 527.40625 281.492188 L 527.40625 301.5625 " fill-opacity="1" fill-rule="nonzero"/><path fill="#656263" d="M 273.789062 25.28125 L 332.316406 65.421875 L 488.390625 65.421875 L 546.914062 25.28125 L 273.789062 25.28125 " fill-opacity="1" fill-rule="nonzero"/><path fill="#918f8f" d="M 273.789062 399.351562 L 332.316406 360.066406 L 488.390625 360.066406 L 546.914062 399.351562 L 273.789062 399.351562 " fill-opacity="1" fill-rule="nonzero"/><path fill="#918f8f" d="M 293.300781 281.492188 L 332.316406 261.851562 L 488.390625 261.851562 L 527.40625 281.492188 L 293.300781 281.492188 " fill-opacity="1" fill-rule="nonzero"/><path fill="#656263" d="M 526.855469 164.058594 L 488.390625 183.277344 L 332.316406 183.277344 L 293.777344 164.058594 L 526.855469 164.058594 " fill-opacity="1" fill-rule="nonzero"/><path fill="#d3d2d2" d="M 278.265625 130.679688 L 269.316406 130.679688 L 269.316406 76.300781 L 278.265625 76.300781 L 278.265625 130.679688 " fill-opacity="1" fill-rule="nonzero"/><path fill="#d3d2d2" d="M 278.265625 368.824219 L 269.316406 368.824219 L 269.316406 314.453125 L 278.265625 314.453125 L 278.265625 368.824219 " fill-opacity="1" fill-rule="nonzero"/></svg>