<svg xmlns="http://www.w3.org/2000/svg" xmlns:xlink="http://www.w3.org/1999/xlink" width="604" zoomAndPan="magnify" viewBox="0 0 453.75 283.499996" height="377" preserveAspectRatio="xMidYMid meet" version="1.0"><defs><clipPath id="d7ebd80315"><path d="M 309 17 L 452.726562 17 L 452.726562 172 L 309 172 Z M 309 17 " clip-rule="nonzero"/></clipPath></defs><path fill="#d2998b" d="M 305.21875 124.015625 L 267.464844 124.164062 C 267.464844 124.164062 198.996094 159.429688 91.539062 137.933594 C 91.539062 137.933594 72.746094 134.886719 54.941406 80.035156 C 54.941406 80.035156 58.417969 55.273438 84.125 43.464844 C 84.125 43.464844 120.84375 21.804688 174.820312 34.652344 C 174.820312 34.652344 185.082031 38.214844 186.011719 58.289062 C 186.9375 78.367188 242.398438 23.699219 305.21875 71.339844 " fill-opacity="1" fill-rule="nonzero"/><path fill="#e4a697" d="M 131.851562 107.914062 C 145.085938 104.332031 170.539062 38.039062 170.539062 38.039062 C 116.5625 26.667969 79.84375 45.84375 79.84375 45.84375 C 54.136719 56.292969 64.707031 79.75 64.707031 79.75 C 82.511719 128.300781 93.273438 128.175781 93.273438 128.175781 C 191.457031 145.226562 166.347656 116.070312 166.347656 116.070312 C 166.347656 116.070312 151.140625 105.320312 131.851562 107.914062 Z M 131.851562 107.914062 " fill-opacity="1" fill-rule="nonzero"/><path fill="#f6b2a2" d="M 398.988281 28.851562 C 398.988281 28.851562 298.964844 43.566406 236.359375 37.4375 C 236.359375 37.4375 73.492188 0.128906 54.160156 31.160156 C 54.160156 31.160156 36.445312 60.898438 24.335938 108.617188 C 10.609375 162.730469 0.222656 182.316406 5.785156 186.945312 C 5.785156 186.945312 19.882812 199.632812 39.839844 179.164062 C 39.839844 179.164062 55.804688 159.613281 58.652344 133.527344 C 58.652344 133.527344 86.847656 104.457031 91.539062 87.730469 C 91.539062 87.730469 152.285156 104.882812 154.117188 123.273438 C 154.117188 123.273438 125.164062 162.605469 115.15625 187.042969 C 115.15625 187.042969 88.460938 228.734375 105.644531 242.835938 C 105.644531 242.835938 120.71875 262.148438 135.710938 221.988281 C 135.710938 221.988281 150.449219 198.074219 188.109375 177.386719 C 188.109375 177.386719 220.40625 163.742188 255.996094 136.152344 C 255.996094 136.152344 375.667969 122.050781 398.984375 130.632812 L 398.984375 28.851562 Z M 398.988281 28.851562 " fill-opacity="1" fill-rule="nonzero"/><path fill="#b2e0f9" d="M 271.566406 32.097656 L 367.859375 32.097656 L 367.859375 157.917969 L 271.566406 157.917969 Z M 271.566406 32.097656 " fill-opacity="1" fill-rule="nonzero"/><g clip-path="url(#d7ebd80315)"><path fill="#364b9b" d="M 309.570312 17.289062 L 452.625 17.289062 L 452.625 171.65625 L 309.570312 171.65625 Z M 309.570312 17.289062 " fill-opacity="1" fill-rule="nonzero"/></g><path fill="#f39433" d="M 109.238281 194.34375 C 109.238281 195.539062 109.179688 196.726562 109.0625 197.914062 C 108.945312 199.101562 108.769531 200.28125 108.535156 201.453125 C 108.304688 202.621094 108.011719 203.777344 107.667969 204.917969 C 107.320312 206.058594 106.917969 207.183594 106.460938 208.285156 C 106.003906 209.386719 105.496094 210.464844 104.929688 211.515625 C 104.367188 212.566406 103.753906 213.589844 103.09375 214.582031 C 102.429688 215.574219 101.71875 216.53125 100.960938 217.453125 C 100.203125 218.375 99.402344 219.257812 98.558594 220.101562 C 97.714844 220.945312 96.828125 221.746094 95.90625 222.503906 C 94.984375 223.257812 94.027344 223.96875 93.03125 224.632812 C 92.039062 225.292969 91.015625 225.90625 89.964844 226.46875 C 88.910156 227.03125 87.832031 227.539062 86.730469 227.996094 C 85.625 228.453125 84.503906 228.855469 83.359375 229.203125 C 82.21875 229.546875 81.0625 229.835938 79.890625 230.070312 C 78.71875 230.304688 77.539062 230.476562 76.351562 230.59375 C 75.164062 230.710938 73.972656 230.769531 72.777344 230.769531 C 71.582031 230.769531 70.394531 230.710938 69.203125 230.59375 C 68.015625 230.476562 66.835938 230.304688 65.664062 230.070312 C 64.492188 229.835938 63.335938 229.546875 62.195312 229.203125 C 61.050781 228.855469 59.929688 228.453125 58.824219 227.996094 C 57.722656 227.539062 56.644531 227.03125 55.589844 226.46875 C 54.539062 225.90625 53.515625 225.292969 52.523438 224.632812 C 51.53125 223.96875 50.570312 223.257812 49.648438 222.503906 C 48.726562 221.746094 47.84375 220.945312 46.996094 220.101562 C 46.152344 219.257812 45.351562 218.375 44.59375 217.453125 C 43.835938 216.53125 43.128906 215.574219 42.464844 214.582031 C 41.800781 213.589844 41.1875 212.566406 40.625 211.515625 C 40.0625 210.464844 39.550781 209.386719 39.09375 208.285156 C 38.636719 207.183594 38.234375 206.058594 37.890625 204.917969 C 37.542969 203.777344 37.253906 202.621094 37.019531 201.453125 C 36.785156 200.28125 36.613281 199.101562 36.496094 197.914062 C 36.378906 196.726562 36.320312 195.539062 36.320312 194.34375 C 36.320312 193.152344 36.378906 191.960938 36.496094 190.773438 C 36.613281 189.585938 36.785156 188.410156 37.019531 187.238281 C 37.253906 186.070312 37.542969 184.914062 37.890625 183.773438 C 38.234375 182.628906 38.636719 181.507812 39.09375 180.40625 C 39.550781 179.304688 40.0625 178.226562 40.625 177.175781 C 41.1875 176.121094 41.800781 175.101562 42.464844 174.109375 C 43.128906 173.117188 43.835938 172.160156 44.59375 171.238281 C 45.351562 170.316406 46.152344 169.433594 46.996094 168.589844 C 47.84375 167.746094 48.726562 166.945312 49.648438 166.1875 C 50.570312 165.433594 51.53125 164.722656 52.523438 164.058594 C 53.515625 163.394531 54.539062 162.785156 55.589844 162.222656 C 56.644531 161.660156 57.722656 161.148438 58.824219 160.691406 C 59.929688 160.238281 61.050781 159.835938 62.195312 159.488281 C 63.335938 159.144531 64.492188 158.851562 65.664062 158.621094 C 66.835938 158.386719 68.015625 158.214844 69.203125 158.097656 C 70.394531 157.980469 71.582031 157.921875 72.777344 157.921875 C 73.972656 157.921875 75.164062 157.980469 76.351562 158.097656 C 77.539062 158.214844 78.71875 158.386719 79.890625 158.621094 C 81.0625 158.851562 82.21875 159.144531 83.359375 159.488281 C 84.503906 159.835938 85.625 160.238281 86.730469 160.691406 C 87.832031 161.148438 88.910156 161.660156 89.964844 162.222656 C 91.015625 162.785156 92.039062 163.394531 93.03125 164.058594 C 94.027344 164.722656 94.984375 165.433594 95.90625 166.1875 C 96.828125 166.945312 97.714844 167.746094 98.558594 168.589844 C 99.402344 169.433594 100.203125 170.316406 100.960938 171.238281 C 101.71875 172.160156 102.429688 173.117188 103.09375 174.109375 C 103.753906 175.101562 104.367188 176.121094 104.929688 177.175781 C 105.496094 178.226562 106.003906 179.304688 106.460938 180.40625 C 106.917969 181.507812 107.320312 182.628906 107.667969 183.773438 C 108.011719 184.914062 108.304688 186.070312 108.535156 187.238281 C 108.769531 188.410156 108.945312 189.585938 109.0625 190.773438 C 109.179688 191.960938 109.238281 193.152344 109.238281 194.34375 Z M 109.238281 194.34375 " fill-opacity="1" fill-rule="nonzero"/><path fill="#f9b342" d="M 100.910156 194.34375 C 100.910156 195.265625 100.863281 196.183594 100.773438 197.101562 C 100.683594 198.015625 100.546875 198.925781 100.367188 199.828125 C 100.1875 200.730469 99.964844 201.621094 99.695312 202.503906 C 99.429688 203.382812 99.121094 204.25 98.765625 205.101562 C 98.414062 205.949219 98.019531 206.78125 97.585938 207.59375 C 97.152344 208.40625 96.679688 209.195312 96.167969 209.960938 C 95.65625 210.722656 95.105469 211.460938 94.523438 212.175781 C 93.9375 212.886719 93.320312 213.566406 92.667969 214.21875 C 92.019531 214.867188 91.335938 215.484375 90.625 216.070312 C 89.910156 216.652344 89.171875 217.203125 88.40625 217.714844 C 87.640625 218.222656 86.851562 218.695312 86.039062 219.132812 C 85.226562 219.566406 84.394531 219.957031 83.542969 220.308594 C 82.691406 220.664062 81.824219 220.972656 80.945312 221.238281 C 80.0625 221.507812 79.167969 221.730469 78.265625 221.910156 C 77.363281 222.089844 76.453125 222.222656 75.535156 222.3125 C 74.617188 222.40625 73.699219 222.449219 72.777344 222.449219 C 71.855469 222.449219 70.9375 222.40625 70.019531 222.3125 C 69.105469 222.222656 68.195312 222.089844 67.289062 221.910156 C 66.386719 221.730469 65.492188 221.507812 64.613281 221.238281 C 63.730469 220.972656 62.863281 220.664062 62.011719 220.308594 C 61.160156 219.957031 60.328125 219.566406 59.515625 219.132812 C 58.703125 218.695312 57.914062 218.222656 57.148438 217.714844 C 56.382812 217.203125 55.644531 216.652344 54.933594 216.070312 C 54.21875 215.484375 53.539062 214.867188 52.886719 214.21875 C 52.234375 213.566406 51.617188 212.886719 51.03125 212.175781 C 50.449219 211.460938 49.898438 210.722656 49.386719 209.960938 C 48.875 209.195312 48.402344 208.40625 47.96875 207.59375 C 47.535156 206.78125 47.140625 205.949219 46.789062 205.101562 C 46.4375 204.25 46.125 203.382812 45.859375 202.503906 C 45.589844 201.621094 45.367188 200.730469 45.1875 199.828125 C 45.007812 198.925781 44.875 198.015625 44.78125 197.101562 C 44.691406 196.183594 44.648438 195.265625 44.648438 194.34375 C 44.648438 193.425781 44.691406 192.507812 44.78125 191.589844 C 44.875 190.675781 45.007812 189.765625 45.1875 188.863281 C 45.367188 187.960938 45.589844 187.066406 45.859375 186.1875 C 46.125 185.304688 46.4375 184.441406 46.789062 183.589844 C 47.140625 182.738281 47.535156 181.910156 47.96875 181.097656 C 48.402344 180.285156 48.875 179.496094 49.386719 178.730469 C 49.898438 177.964844 50.449219 177.226562 51.03125 176.515625 C 51.617188 175.804688 52.234375 175.125 52.886719 174.472656 C 53.539062 173.820312 54.21875 173.203125 54.933594 172.621094 C 55.644531 172.035156 56.382812 171.488281 57.148438 170.976562 C 57.914062 170.464844 58.703125 169.992188 59.515625 169.558594 C 60.328125 169.125 61.160156 168.734375 62.011719 168.378906 C 62.863281 168.027344 63.730469 167.71875 64.613281 167.453125 C 65.492188 167.183594 66.386719 166.960938 67.289062 166.78125 C 68.195312 166.601562 69.105469 166.464844 70.019531 166.375 C 70.9375 166.285156 71.855469 166.242188 72.777344 166.242188 C 73.699219 166.242188 74.617188 166.285156 75.535156 166.375 C 76.453125 166.464844 77.363281 166.601562 78.265625 166.78125 C 79.167969 166.960938 80.0625 167.183594 80.945312 167.453125 C 81.824219 167.71875 82.691406 168.027344 83.542969 168.378906 C 84.394531 168.734375 85.226562 169.125 86.039062 169.558594 C 86.851562 169.992188 87.640625 170.464844 88.40625 170.976562 C 89.171875 171.488281 89.910156 172.035156 90.625 172.621094 C 91.335938 173.203125 92.019531 173.820312 92.667969 174.472656 C 93.320312 175.125 93.9375 175.804688 94.523438 176.515625 C 95.105469 177.226562 95.65625 177.964844 96.167969 178.730469 C 96.679688 179.496094 97.152344 180.285156 97.585938 181.097656 C 98.019531 181.910156 98.414062 182.738281 98.765625 183.589844 C 99.121094 184.441406 99.429688 185.304688 99.695312 186.1875 C 99.964844 187.066406 100.1875 187.960938 100.367188 188.863281 C 100.546875 189.765625 100.683594 190.675781 100.773438 191.589844 C 100.863281 192.507812 100.910156 193.425781 100.910156 194.34375 Z M 100.910156 194.34375 " fill-opacity="1" fill-rule="nonzero"/><path fill="#e88e30" d="M 46.027344 203.015625 C 45.777344 202.246094 45.566406 201.46875 45.398438 200.695312 C 45.582031 201.480469 45.785156 202.257812 46.027344 203.015625 Z M 46.027344 203.015625 " fill-opacity="1" fill-rule="nonzero"/><path fill="#e88e30" d="M 64.421875 169.035156 C 78.984375 164.234375 94.453125 171.390625 99.292969 185.027344 C 95.4375 174.09375 85.035156 166.242188 72.777344 166.242188 C 57.242188 166.242188 44.648438 178.824219 44.648438 194.34375 C 44.648438 196.457031 44.902344 198.507812 45.347656 200.488281 C 42.515625 187.289062 50.59375 173.59375 64.421875 169.035156 Z M 64.421875 169.035156 " fill-opacity="1" fill-rule="nonzero"/><path fill="#e88e30" d="M 100.214844 188.199219 C 103.039062 201.402344 94.953125 215.09375 81.136719 219.652344 C 66.570312 224.453125 51.101562 217.300781 46.265625 203.671875 C 50.121094 214.597656 60.519531 222.449219 72.777344 222.449219 C 88.308594 222.449219 100.910156 209.867188 100.910156 194.347656 C 100.910156 192.230469 100.652344 190.179688 100.214844 188.199219 Z M 100.214844 188.199219 " fill-opacity="1" fill-rule="nonzero"/><path fill="#e88e30" d="M 100.160156 188.003906 C 99.980469 187.210938 99.773438 186.433594 99.527344 185.667969 C 99.777344 186.449219 99.984375 187.226562 100.160156 188.003906 Z M 100.160156 188.003906 " fill-opacity="1" fill-rule="nonzero"/><path fill="#f39433" d="M 78.554688 194.359375 C 77.898438 193.972656 70.375 190.390625 69.582031 189.894531 C 68.078125 188.945312 67.214844 187.511719 67.214844 185.957031 C 67.214844 184.800781 67.554688 181.03125 71.910156 181.03125 L 75.769531 181.03125 C 77.746094 181.03125 78.757812 181.984375 78.757812 182.390625 L 83.457031 182.390625 C 83.457031 178.992188 80.078125 176.332031 75.769531 176.332031 L 75.765625 173.683594 L 71.902344 173.683594 L 71.90625 176.332031 C 66.371094 176.332031 62.511719 180.292969 62.511719 185.960938 C 62.511719 189.113281 64.21875 192.074219 67.085938 193.871094 C 67.851562 194.347656 75.671875 198.109375 76.167969 198.40625 C 77.722656 199.316406 78.636719 200.734375 78.695312 202.292969 C 78.753906 204.03125 78.351562 205.449219 77.566406 206.289062 C 76.914062 206.972656 75.976562 207.324219 74.75 207.359375 L 70.835938 207.378906 C 68.675781 207.433594 66.851562 206.804688 66.761719 205.972656 L 62.089844 206.449219 C 62.4375 209.898438 65.738281 212.078125 70.496094 212.078125 C 70.515625 212.078125 70.523438 215.007812 70.523438 215.007812 L 74.808594 214.988281 L 74.820312 212.054688 C 77.347656 211.988281 79.480469 211.105469 80.984375 209.503906 C 82.664062 207.71875 83.492188 205.171875 83.390625 202.128906 C 83.28125 198.980469 81.472656 196.074219 78.554688 194.359375 Z M 78.554688 194.359375 " fill-opacity="1" fill-rule="nonzero"/></svg>