<svg xmlns="http://www.w3.org/2000/svg" xmlns:xlink="http://www.w3.org/1999/xlink" width="377" zoomAndPan="magnify" viewBox="0 0 283.5 283.500005" height="377" preserveAspectRatio="xMidYMid meet" version="1.0"><defs><clipPath id="9a63d7afde"><path d="M 162.628906 131 L 263 131 L 263 229 L 162.628906 229 Z M 162.628906 131 " clip-rule="nonzero"/></clipPath><clipPath id="4866fde63e"><path d="M 179 159 L 283 159 L 283 229 L 179 229 Z M 179 159 " clip-rule="nonzero"/></clipPath><clipPath id="a5a940b293"><path d="M 178 180 L 243 180 L 243 244.671875 L 178 244.671875 Z M 178 180 " clip-rule="nonzero"/></clipPath><clipPath id="4df9470675"><path d="M 162.628906 140 L 278 140 L 278 244.671875 L 162.628906 244.671875 Z M 162.628906 140 " clip-rule="nonzero"/></clipPath></defs><path fill="#ffb6b6" d="M 231.355469 153.195312 C 230.863281 154.285156 230.367188 155.378906 229.824219 156.421875 L 221.070312 205.300781 C 220.429688 205.5 219.835938 205.847656 219.292969 206.144531 C 216.273438 207.933594 213.160156 209.769531 209.746094 210.5625 C 207.867188 211.007812 205.890625 211.109375 203.960938 211.257812 C 200.648438 211.457031 197.089844 211.554688 194.367188 209.667969 C 193.675781 209.171875 193.035156 208.527344 192.242188 208.128906 C 191.453125 207.734375 190.460938 207.585938 189.769531 208.082031 C 189.574219 208.230469 189.375 208.476562 189.128906 208.578125 C 188.238281 209.074219 187.296875 208.179688 186.65625 207.433594 C 186.160156 206.839844 185.667969 206.195312 185.171875 205.597656 L 184.429688 201.925781 C 173.796875 208.082031 158.46875 216.964844 158.46875 216.964844 C 158.46875 216.964844 154.710938 219.59375 148.035156 222.421875 L 142.941406 250.660156 C 142.300781 250.859375 141.707031 251.207031 141.164062 251.503906 C 138.144531 253.289062 135.03125 255.125 131.617188 255.917969 C 129.738281 256.367188 127.761719 256.464844 125.832031 256.613281 C 122.519531 256.8125 118.960938 256.914062 116.242188 255.027344 C 115.546875 254.53125 114.90625 253.886719 114.113281 253.488281 C 113.324219 253.089844 112.335938 252.941406 111.640625 253.4375 C 111.445312 253.585938 111.246094 253.835938 111 253.933594 C 110.109375 254.429688 109.167969 253.539062 108.527344 252.792969 C 108.03125 252.199219 107.539062 251.550781 107.042969 250.957031 L 102.445312 228.128906 C 98.09375 227.484375 93.59375 226.542969 88.894531 225.101562 C 85.929688 224.207031 83.109375 223.265625 80.390625 222.222656 C 79.007812 222.867188 77.570312 223.414062 76.039062 223.761719 C 74.160156 224.207031 72.183594 224.308594 70.253906 224.457031 C 66.941406 224.65625 63.378906 224.753906 60.660156 222.867188 C 59.96875 222.371094 59.324219 221.726562 58.535156 221.332031 C 57.742188 220.933594 56.753906 220.785156 56.0625 221.28125 C 55.863281 221.429688 55.667969 221.679688 55.417969 221.777344 C 54.527344 222.273438 53.589844 221.378906 52.945312 220.636719 C 52.453125 220.039062 51.957031 219.394531 51.464844 218.800781 L 48.59375 204.605469 C 48.199219 204.257812 47.753906 203.960938 47.359375 203.613281 C 42.464844 206.246094 35.046875 205.449219 26.738281 200.636719 C 12.203125 192.101562 0.234375 174.285156 0.234375 160.984375 C 0.234375 151.257812 6.664062 146.542969 15.8125 148.035156 C 10.867188 113.195312 25.058594 82.03125 25.058594 82.03125 C 25.058594 82.03125 36.183594 57.566406 84.839844 28.78125 C 133.5 0 184.378906 12.554688 215.929688 48.1875 C 247.476562 83.816406 241.789062 129.574219 231.355469 153.195312 Z M 231.355469 153.195312 " fill-opacity="1" fill-rule="nonzero"/><path fill="#ff9f9f" d="M 143.488281 23.621094 L 145.070312 24.515625 C 146.601562 25.410156 146.601562 27.640625 145.070312 28.535156 L 105.164062 51.660156 C 104.472656 52.058594 103.582031 52.058594 102.839844 51.660156 L 101.257812 50.765625 C 99.726562 49.875 99.726562 47.640625 101.257812 46.746094 L 141.164062 23.621094 C 141.855469 23.226562 142.746094 23.226562 143.488281 23.621094 Z M 14.179688 165.550781 C 11.210938 163.8125 8.789062 165.253906 8.789062 168.679688 C 8.789062 172.101562 11.210938 176.320312 14.179688 178.058594 C 17.144531 179.792969 19.570312 178.355469 19.570312 174.929688 C 19.570312 171.507812 17.144531 167.289062 14.179688 165.550781 Z M 36.726562 178.601562 C 33.761719 176.867188 31.335938 178.304688 31.335938 181.730469 C 31.335938 185.152344 33.761719 189.371094 36.726562 191.109375 C 39.695312 192.84375 42.117188 191.40625 42.117188 187.980469 C 42.117188 184.558594 39.695312 180.339844 36.726562 178.601562 Z M 83.109375 50.867188 L 81.082031 49.773438 C 77.71875 47.839844 70.253906 43.027344 58.484375 33.148438 C 58.335938 33 58.140625 32.851562 57.992188 32.753906 C 46.46875 23.273438 30.300781 21.835938 17.292969 29.128906 C 14.96875 30.421875 13.289062 31.363281 13.289062 31.363281 L 30.597656 40.84375 C 31.335938 44.863281 32.523438 49.527344 34.304688 54.785156 C 36.085938 60.097656 42.910156 56.671875 52.75 59.203125 C 54.28125 58.011719 56.011719 56.820312 57.890625 55.730469 L 66.546875 60.492188 Z M 142.101562 122.824219 L 158.074219 113.542969 C 158.074219 113.542969 170.929688 82.378906 157.480469 51.511719 C 154.515625 44.664062 146.253906 41.882812 139.730469 45.40625 C 139.679688 45.457031 139.582031 45.457031 139.53125 45.507812 L 124.101562 54.539062 L 142.101562 105.355469 Z M 102.492188 228.03125 L 103.78125 234.433594 C 122.273438 236.8125 137.257812 232.941406 146.847656 229.121094 L 148.085938 222.371094 C 138.34375 226.492188 122.324219 230.859375 102.492188 228.03125 Z M 69.710938 182.273438 C 69.710938 168.976562 57.742188 151.210938 43.15625 142.722656 C 34.550781 137.710938 26.839844 137.066406 21.992188 140.09375 L 5.527344 149.671875 C 10.371094 146.59375 18.136719 147.238281 26.789062 152.25 C 41.375 160.738281 53.34375 178.503906 53.34375 191.804688 C 53.34375 197.113281 51.414062 200.933594 48.199219 203.070312 L 64.121094 193.886719 C 67.582031 191.753906 69.710938 187.832031 69.710938 182.273438 Z M 48.644531 204.457031 L 50.128906 211.800781 C 55.765625 216.019531 62.6875 220.386719 70.898438 224.308594 C 72.628906 224.207031 74.359375 224.058594 76.089844 223.664062 C 77.570312 223.316406 79.007812 222.769531 80.441406 222.125 C 67.039062 217.113281 56.507812 210.613281 48.644531 204.457031 Z M 185.023438 201.53125 C 184.824219 201.628906 184.628906 201.777344 184.429688 201.878906 L 185.171875 205.550781 C 185.566406 206.046875 185.960938 206.492188 186.359375 206.988281 C 196.542969 200.984375 215.878906 188.578125 228.140625 165.949219 L 229.871094 156.421875 C 217.214844 182.175781 195.257812 195.625 185.023438 201.53125 Z M 209.597656 41.585938 C 210.984375 40.445312 213.0625 39.054688 215.632812 38.261719 C 215.679688 39.652344 215.878906 40.992188 216.226562 42.332031 C 217.3125 46.351562 219.785156 49.378906 223.199219 50.867188 C 225.816406 52.007812 228.6875 51.660156 230.960938 49.921875 C 233.382812 48.085938 234.621094 44.910156 234.175781 41.882812 C 233.828125 39.75 232.34375 35.828125 226.214844 33.644531 C 224.632812 33.101562 223.148438 32.753906 221.714844 32.605469 C 222.058594 31.613281 222.503906 30.667969 223.050781 29.675781 C 223.640625 28.585938 223.394531 27.195312 222.355469 26.5 L 222.109375 26.351562 C 220.921875 25.507812 219.292969 25.90625 218.597656 27.144531 C 217.558594 28.980469 216.769531 30.917969 216.273438 32.851562 C 211.625 33.746094 207.96875 36.277344 205.839844 38.113281 C 207.078125 39.253906 208.363281 40.394531 209.597656 41.585938 Z M 224.433594 38.507812 C 227.152344 39.503906 228.835938 40.992188 229.082031 42.726562 C 229.179688 43.273438 229.132812 43.867188 228.933594 44.367188 C 228.734375 44.960938 228.339844 45.507812 227.84375 45.902344 C 227.300781 46.300781 226.410156 46.699219 225.273438 46.203125 C 223.296875 45.308594 221.863281 43.472656 221.171875 40.992188 C 220.875 39.949219 220.726562 38.855469 220.773438 37.714844 C 221.910156 37.765625 223.148438 38.0625 224.433594 38.507812 Z M 224.433594 38.507812 " fill-opacity="1" fill-rule="nonzero"/><path fill="#36373b" d="M 143.980469 244.851562 L 142.746094 251.800781 C 142.300781 254.035156 140.617188 256.265625 137.652344 257.953125 C 131.570312 261.476562 122.175781 261.925781 115.25 259.292969 L 113.371094 253.984375 L 111.542969 257.410156 C 109.167969 255.820312 107.785156 253.933594 107.339844 251.949219 L 105.855469 244.554688 C 106.300781 247.035156 108.132812 249.417969 111.34375 251.253906 C 118.863281 255.621094 131.125 255.621094 138.589844 251.253906 C 141.65625 249.519531 143.4375 247.234375 143.980469 244.851562 Z M 216.671875 205.996094 C 209.152344 210.363281 196.890625 210.363281 189.425781 205.996094 C 187.25 204.753906 185.714844 203.265625 184.824219 201.679688 C 184.628906 201.777344 184.429688 201.878906 184.429688 201.878906 L 185.371094 206.640625 C 185.816406 208.625 187.199219 210.511719 189.574219 212.101562 L 191.402344 208.675781 L 193.28125 213.984375 C 200.203125 216.566406 209.597656 216.121094 215.679688 212.644531 C 218.648438 210.910156 220.328125 208.726562 220.773438 206.492188 L 222.011719 199.546875 C 221.566406 201.925781 219.785156 204.210938 216.671875 205.996094 Z M 67.582031 132.550781 C 64.023438 130.515625 61.15625 132.152344 61.15625 136.273438 C 61.15625 140.390625 64.074219 145.402344 67.582031 147.488281 C 71.144531 149.523438 74.011719 147.882812 74.011719 143.765625 C 74.0625 139.648438 71.144531 134.632812 67.582031 132.550781 Z M 32.871094 112.402344 C 29.308594 110.367188 26.441406 112.003906 26.441406 116.125 C 26.441406 120.242188 29.359375 125.253906 32.871094 127.339844 C 36.429688 129.375 39.300781 127.738281 39.300781 123.617188 C 39.300781 119.5 36.429688 114.488281 32.871094 112.402344 Z M 77.96875 221.183594 C 70.75 223.265625 61.75 222.570312 55.714844 219.097656 C 52.5 217.210938 50.671875 214.828125 50.226562 212.398438 L 51.710938 219.792969 C 52.15625 221.777344 53.539062 223.664062 55.914062 225.25 L 57.742188 221.828125 L 59.621094 227.136719 C 66.546875 229.71875 75.941406 229.269531 82.023438 225.796875 C 83.109375 225.152344 84 224.457031 84.792969 223.710938 C 82.46875 222.917969 80.191406 222.074219 77.96875 221.183594 Z M 77.96875 221.183594 " fill-opacity="1" fill-rule="nonzero"/><path fill="#ff8f8f" d="M 101.257812 46.746094 L 141.164062 23.621094 C 141.855469 23.226562 142.746094 23.226562 143.488281 23.621094 L 145.070312 24.515625 C 146.453125 25.308594 146.601562 27.195312 145.464844 28.1875 C 145.367188 28.089844 145.21875 27.9375 145.070312 27.890625 L 143.488281 26.996094 C 142.792969 26.597656 141.90625 26.597656 141.164062 26.996094 L 101.257812 50.121094 C 101.109375 50.222656 100.960938 50.320312 100.863281 50.417969 C 99.726562 49.425781 99.875 47.542969 101.257812 46.746094 Z M 41.871094 42.726562 C 25.304688 28.832031 13.238281 31.3125 13.238281 31.3125 C 13.238281 31.3125 8.839844 49.078125 25.007812 82.03125 C 25.007812 82.03125 36.578125 57.269531 66.496094 60.445312 C 66.496094 60.445312 58.433594 56.621094 41.871094 42.726562 Z M 102.394531 74.933594 C 102.148438 75.480469 111.195312 80.046875 114.660156 82.03125 C 123.113281 86.894531 137.453125 101.335938 142.101562 122.824219 C 142.101562 122.824219 158.222656 83.621094 135.378906 49.625 C 135.378906 49.625 110.898438 57.167969 102.394531 74.933594 Z M 102.394531 74.933594 " fill-opacity="1" fill-rule="nonzero"/><g clip-path="url(#9a63d7afde)"><path fill="#63a335" d="M 262.6875 162.75 C 263.054688 163.148438 263.03125 163.765625 262.636719 164.132812 L 193.359375 228.472656 C 192.960938 228.84375 192.34375 228.816406 191.972656 228.425781 L 163.003906 197.191406 C 162.636719 196.796875 162.660156 196.175781 163.054688 195.8125 L 232.328125 131.464844 C 232.722656 131.101562 233.347656 131.121094 233.710938 131.519531 L 262.6875 162.75 " fill-opacity="1" fill-rule="nonzero"/></g><path fill="#7fcb4a" d="M 256.527344 163.363281 C 256.832031 163.6875 256.789062 164.226562 256.4375 164.554688 L 194.238281 222.320312 C 193.882812 222.652344 193.347656 222.652344 193.046875 222.324219 L 169.160156 196.578125 C 168.859375 196.25 168.902344 195.71875 169.253906 195.390625 L 231.453125 137.625 C 231.808594 137.292969 232.339844 137.292969 232.644531 137.621094 L 256.527344 163.363281 " fill-opacity="1" fill-rule="nonzero"/><path fill="#63a335" d="M 221.839844 171.613281 C 226.457031 176.585938 226.167969 184.363281 221.199219 188.976562 C 216.226562 193.589844 208.457031 193.300781 203.847656 188.328125 C 199.234375 183.359375 199.523438 175.582031 204.488281 170.96875 C 209.460938 166.355469 217.230469 166.644531 221.839844 171.613281 " fill-opacity="1" fill-rule="nonzero"/><path fill="#63a335" d="M 169.160156 196.578125 L 175.632812 203.558594 C 179.8125 199.679688 180.054688 193.144531 176.179688 188.960938 L 169.253906 195.390625 C 168.902344 195.71875 168.859375 196.25 169.160156 196.578125 " fill-opacity="1" fill-rule="nonzero"/><path fill="#70b646" d="M 194.183594 222.367188 L 201.160156 215.894531 C 197.277344 211.714844 190.75 211.464844 186.570312 215.351562 L 193 222.273438 C 193.324219 222.632812 193.855469 222.675781 194.183594 222.367188 " fill-opacity="1" fill-rule="nonzero"/><path fill="#63a335" d="M 232.644531 137.621094 L 239.117188 144.59375 C 234.941406 148.472656 228.410156 148.230469 224.53125 144.050781 L 231.453125 137.625 C 231.808594 137.292969 232.339844 137.292969 232.644531 137.621094 " fill-opacity="1" fill-rule="nonzero"/><path fill="#63a335" d="M 256.484375 164.503906 L 249.515625 170.980469 C 245.632812 166.800781 245.878906 160.265625 250.054688 156.386719 L 256.480469 163.3125 C 256.8125 163.667969 256.8125 164.203125 256.484375 164.503906 " fill-opacity="1" fill-rule="nonzero"/><g clip-path="url(#4866fde63e)"><path fill="#70b646" d="M 284.296875 201.371094 C 284.449219 201.882812 284.152344 202.429688 283.628906 202.578125 L 192.800781 228.75 C 192.285156 228.894531 191.742188 228.597656 191.59375 228.078125 L 179.808594 187.128906 C 179.65625 186.609375 179.957031 186.066406 180.476562 185.917969 L 271.304688 159.746094 C 271.824219 159.59375 272.367188 159.894531 272.515625 160.417969 L 284.296875 201.371094 " fill-opacity="1" fill-rule="nonzero"/></g><path fill="#8dd260" d="M 278.527344 199.136719 C 278.652344 199.566406 278.371094 200.015625 277.90625 200.152344 L 196.359375 223.652344 C 195.894531 223.785156 195.417969 223.542969 195.292969 223.113281 L 185.578125 189.355469 C 185.453125 188.933594 185.734375 188.472656 186.199219 188.335938 L 267.75 164.84375 C 268.210938 164.714844 268.6875 164.949219 268.816406 165.378906 L 278.527344 199.136719 " fill-opacity="1" fill-rule="nonzero"/><path fill="#70b646" d="M 243.851562 190.847656 C 245.730469 197.367188 241.964844 204.175781 235.449219 206.054688 C 228.933594 207.929688 222.136719 204.164062 220.257812 197.644531 C 218.382812 191.128906 222.140625 184.320312 228.65625 182.441406 C 235.171875 180.566406 241.976562 184.328125 243.851562 190.847656 " fill-opacity="1" fill-rule="nonzero"/><path fill="#70b646" d="M 185.578125 189.355469 L 188.210938 198.503906 C 193.691406 196.933594 196.847656 191.207031 195.277344 185.722656 L 186.199219 188.335938 C 185.734375 188.472656 185.453125 188.933594 185.578125 189.355469 " fill-opacity="1" fill-rule="nonzero"/><path fill="#70b646" d="M 196.289062 223.667969 L 205.433594 221.03125 C 203.855469 215.554688 198.140625 212.390625 192.660156 213.96875 L 195.273438 223.050781 C 195.40625 223.511719 195.863281 223.789062 196.289062 223.667969 " fill-opacity="1" fill-rule="nonzero"/><path fill="#70b646" d="M 268.816406 165.378906 L 271.449219 174.527344 C 265.96875 176.105469 260.25 172.9375 258.671875 167.460938 L 267.75 164.84375 C 268.210938 164.714844 268.6875 164.949219 268.816406 165.378906 " fill-opacity="1" fill-rule="nonzero"/><path fill="#70b646" d="M 277.976562 200.136719 L 268.832031 202.769531 C 267.257812 197.285156 270.421875 191.566406 275.894531 189.984375 L 278.507812 199.066406 C 278.640625 199.535156 278.40625 200.011719 277.976562 200.136719 " fill-opacity="1" fill-rule="nonzero"/><g clip-path="url(#a5a940b293)"><path fill="#f68f34" d="M 242.726562 212.667969 C 242.726562 230.304688 228.441406 244.597656 210.816406 244.597656 C 193.195312 244.597656 178.90625 230.304688 178.90625 212.667969 C 178.90625 195.03125 193.195312 180.738281 210.816406 180.738281 C 228.441406 180.738281 242.726562 195.03125 242.726562 212.667969 " fill-opacity="1" fill-rule="nonzero"/></g><path fill="#fabb34" d="M 235.550781 212.667969 C 235.550781 226.332031 224.480469 237.417969 210.816406 237.417969 C 197.160156 237.417969 186.085938 226.332031 186.085938 212.667969 C 186.085938 199.003906 197.160156 187.917969 210.816406 187.917969 C 224.480469 187.917969 235.550781 199.003906 235.550781 212.667969 " fill-opacity="1" fill-rule="nonzero"/><g clip-path="url(#4df9470675)"><path stroke-linecap="round" transform="matrix(0.0536203, 0, 0, -0.0536525, 109.543955, 301.967713)" fill="none" stroke-linejoin="miter" d="M 2042.774668 1820.579701 C 2042.774668 1820.579701 2034.324042 1919.232492 1904.504948 1928.915755 C 1800.984783 1936.633242 1739.134946 1900.084385 1728.425963 1830.991029 C 1728.425963 1830.991029 1713.710218 1732.411044 1775.195805 1700.521803 C 1847.973176 1662.880849 2049.112637 1658.075621 2051.225293 1524.330103 C 2051.225293 1524.330103 2059.530219 1405.364302 1894.014516 1405.364302 C 1894.014516 1405.364302 1734.399681 1401.068719 1726.094756 1500.886414 " stroke="#f68f34" stroke-width="76.435997" stroke-opacity="1" stroke-miterlimit="10"/></g><path stroke-linecap="round" transform="matrix(0.0536203, 0, 0, -0.0536525, 109.543955, 301.967713)" fill="none" stroke-linejoin="miter" d="M 1819.78014 2014.681797 L 1819.78014 1923.382461 " stroke="#f68f34" stroke-width="76.435997" stroke-opacity="1" stroke-miterlimit="10"/><path stroke-linecap="round" transform="matrix(0.0536203, 0, 0, -0.0536525, 109.543955, 301.967713)" fill="none" stroke-linejoin="miter" d="M 1936.631895 2014.681797 L 1936.631895 1923.382461 " stroke="#f68f34" stroke-width="76.435997" stroke-opacity="1" stroke-miterlimit="10"/><path stroke-linecap="round" transform="matrix(0.0536203, 0, 0, -0.0536525, 109.543955, 301.967713)" fill="none" stroke-linejoin="miter" d="M 1830.270572 1405.364302 L 1830.270572 1313.99216 " stroke="#f68f34" stroke-width="76.435997" stroke-opacity="1" stroke-miterlimit="10"/><path stroke-linecap="round" transform="matrix(0.0536203, 0, 0, -0.0536525, 109.543955, 301.967713)" fill="none" stroke-linejoin="miter" d="M 1947.122327 1405.364302 L 1947.122327 1313.99216 " stroke="#f68f34" stroke-width="76.435997" stroke-opacity="1" stroke-miterlimit="10"/></svg>