<svg xmlns="http://www.w3.org/2000/svg" xmlns:xlink="http://www.w3.org/1999/xlink" width="1080" zoomAndPan="magnify" viewBox="0 0 810 809.999993" height="1080" preserveAspectRatio="xMidYMid meet" version="1.0"><defs><clipPath id="d72d9301a2"><path d="M 22.828125 357 L 132 357 L 132 488 L 22.828125 488 Z M 22.828125 357 " clip-rule="nonzero"/></clipPath></defs><path fill="#e2676d" d="M 454.453125 668.363281 L 454.453125 743.550781 C 459.800781 743.195312 465.113281 742.765625 470.359375 742.160156 C 476.632812 769.835938 485.941406 807.144531 491.21875 809.390625 L 582.160156 809.390625 C 582.160156 809.390625 599.707031 806.109375 621.246094 686.875 C 621.746094 680.5625 621.28125 674.394531 620.070312 668.363281 L 454.453125 668.363281 " fill-opacity="1" fill-rule="nonzero"/><path fill="#e2676d" d="M 235.414062 668.363281 L 235.414062 743.550781 C 240.761719 743.195312 246.074219 742.765625 251.316406 742.160156 C 257.558594 769.835938 266.867188 807.144531 272.179688 809.390625 L 363.121094 809.390625 C 363.121094 809.390625 380.667969 806.109375 402.207031 686.875 C 402.707031 680.5625 402.242188 674.394531 400.992188 668.363281 L 235.414062 668.363281 " fill-opacity="1" fill-rule="nonzero"/><g clip-path="url(#d72d9301a2)"><path fill="#f7938e" d="M 90.730469 432.285156 C 73.359375 419.160156 84.988281 360.738281 106.492188 373.292969 C 129.78125 386.882812 90.730469 432.285156 90.730469 432.285156 Z M 106.492188 441.988281 C 106.492188 441.988281 157.027344 373.683594 106.492188 358.347656 C 83.847656 351.464844 69.332031 372.472656 66.476562 394.691406 C 63.660156 416.769531 77.390625 437.957031 77.390625 437.957031 C 43.011719 452.367188 22.828125 413.523438 22.828125 413.523438 C 34.953125 478.4375 90.730469 460.175781 90.730469 460.175781 C 106.492188 492.917969 131.953125 486.855469 131.953125 486.855469 L 131.953125 465.027344 C 112.554688 458.964844 106.492188 441.988281 106.492188 441.988281 " fill-opacity="1" fill-rule="nonzero"/></g><path fill="#f7938e" d="M 776.164062 598.777344 C 776.164062 598.777344 787.078125 493.3125 776.164062 487.246094 C 765.25 481.148438 761.613281 498.589844 761.613281 498.589844 L 702.449219 466.027344 C 700.203125 448.511719 695.886719 431.570312 689.683594 415.308594 C 689.683594 415.308594 715.253906 262.546875 689.683594 262.546875 C 668.214844 262.511719 626.488281 282.375 595.855469 298.640625 C 545.925781 263.9375 482.410156 243.144531 413.226562 243.144531 C 252.53125 243.144531 122.253906 355.351562 122.253906 493.738281 C 122.253906 566.394531 158.167969 631.804688 215.546875 677.566406 C 237.800781 805.933594 256.238281 809.390625 256.238281 809.390625 L 347.179688 809.390625 C 352.527344 807.109375 361.980469 769.089844 368.21875 741.339844 C 382.914062 743.300781 397.925781 744.335938 413.226562 744.335938 C 426.3125 744.335938 439.1875 743.585938 451.777344 742.160156 C 458.019531 769.835938 467.363281 807.144531 472.640625 809.390625 L 563.578125 809.390625 C 563.578125 809.390625 581.125 806.109375 602.667969 686.875 C 602.667969 686.875 772.457031 645.289062 776.164062 598.777344 " fill-opacity="1" fill-rule="nonzero"/><path fill="#faba8a" d="M 687.257812 302.5625 L 642.394531 343.1875 L 676.34375 394.691406 Z M 687.257812 302.5625 " fill-opacity="1" fill-rule="nonzero"/><path fill="#663132" d="M 680.019531 464.707031 C 680.019531 477.191406 673.207031 487.320312 664.824219 487.320312 C 656.410156 487.320312 649.597656 477.191406 649.597656 464.707031 C 649.597656 452.222656 656.410156 442.09375 664.824219 442.09375 C 673.207031 442.09375 680.019531 452.222656 680.019531 464.707031 " fill-opacity="1" fill-rule="nonzero"/><path fill="#f08585" d="M 772.917969 608.660156 C 669.570312 620.929688 275.390625 650.390625 138.695312 410.527344 C 128.066406 436.566406 122.253906 464.5625 122.253906 493.738281 C 122.253906 566.394531 158.167969 631.804688 215.546875 677.566406 C 237.800781 805.933594 256.238281 809.390625 256.238281 809.390625 L 347.179688 809.390625 C 352.527344 807.109375 361.980469 769.089844 368.21875 741.339844 C 382.914062 743.300781 397.925781 744.335938 413.226562 744.335938 C 426.3125 744.335938 439.1875 743.585938 451.777344 742.160156 C 458.019531 769.835938 467.363281 807.144531 472.640625 809.390625 L 563.578125 809.390625 C 563.578125 809.390625 581.125 806.109375 602.664062 686.875 C 602.664062 686.875 749.023438 650.996094 772.917969 608.660156 " fill-opacity="1" fill-rule="nonzero"/><path stroke-linecap="butt" transform="matrix(0.356626, 0, 0, -0.35667, -356.266385, 1163.280321)" fill="none" stroke-linejoin="miter" d="M 1965.098009 2461.996485 C 1965.098009 2461.996485 2150.899606 2516.395078 2395.695922 2461.996485 " stroke="#cc494b" stroke-width="47.596001" stroke-opacity="1" stroke-miterlimit="10"/><path fill="#f68f34" d="M 478.988281 218.320312 C 478.988281 250.167969 453.167969 275.992188 421.320312 275.992188 C 389.476562 275.992188 363.65625 250.167969 363.65625 218.320312 C 363.65625 186.433594 389.476562 160.644531 421.320312 160.644531 C 453.167969 160.644531 478.988281 186.433594 478.988281 218.320312 " fill-opacity="1" fill-rule="nonzero"/><path fill="#fabb34" d="M 466.007812 218.320312 C 466.007812 243 446 263.007812 421.320312 263.007812 C 396.644531 263.007812 376.636719 243 376.636719 218.320312 C 376.636719 193.636719 396.644531 173.59375 421.320312 173.59375 C 446 173.59375 466.007812 193.636719 466.007812 218.320312 " fill-opacity="1" fill-rule="nonzero"/><path stroke-linecap="round" transform="matrix(0.356626, 0, 0, -0.35667, -356.266385, 1163.280321)" fill="none" stroke-linejoin="miter" d="M 2222.304465 2691.90091 C 2222.304465 2691.90091 2220.004262 2718.700459 2184.70163 2721.296083 C 2156.595346 2723.398867 2139.803868 2713.498258 2136.802651 2694.704622 C 2136.802651 2694.704622 2132.80468 2667.905074 2149.596158 2659.2968 C 2169.301227 2649.001918 2224.002233 2647.69863 2224.604667 2611.403695 C 2224.604667 2611.403695 2226.795336 2579.09529 2181.798994 2579.09529 C 2181.798994 2579.09529 2138.401839 2577.901521 2136.200217 2604.996774 " stroke="#f68f34" stroke-width="20.768" stroke-opacity="1" stroke-miterlimit="10"/><path stroke-linecap="round" transform="matrix(0.356626, 0, 0, -0.35667, -356.266385, 1163.280321)" fill="none" stroke-linejoin="miter" d="M 2161.699605 2744.700511 L 2161.699605 2719.795659 " stroke="#f68f34" stroke-width="20.768" stroke-opacity="1" stroke-miterlimit="10"/><path stroke-linecap="round" transform="matrix(0.356626, 0, 0, -0.35667, -356.266385, 1163.280321)" fill="none" stroke-linejoin="miter" d="M 2193.398586 2744.700511 L 2193.398586 2719.795659 " stroke="#f68f34" stroke-width="20.768" stroke-opacity="1" stroke-miterlimit="10"/><path stroke-linecap="round" transform="matrix(0.356626, 0, 0, -0.35667, -356.266385, 1163.280321)" fill="none" stroke-linejoin="miter" d="M 2164.503661 2579.09529 L 2164.503661 2554.299957 " stroke="#f68f34" stroke-width="20.768" stroke-opacity="1" stroke-miterlimit="10"/><path stroke-linecap="round" transform="matrix(0.356626, 0, 0, -0.35667, -356.266385, 1163.280321)" fill="none" stroke-linejoin="miter" d="M 2196.202643 2579.09529 L 2196.202643 2554.299957 " stroke="#f68f34" stroke-width="20.768" stroke-opacity="1" stroke-miterlimit="10"/><path fill="#f68f34" d="M 563.117188 115.917969 C 563.117188 147.769531 537.296875 173.59375 505.449219 173.59375 C 473.601562 173.59375 447.78125 147.769531 447.78125 115.917969 C 447.78125 84.070312 473.601562 58.246094 505.449219 58.246094 C 537.296875 58.246094 563.117188 84.070312 563.117188 115.917969 " fill-opacity="1" fill-rule="nonzero"/><path fill="#fabb34" d="M 550.136719 115.917969 C 550.136719 140.636719 530.128906 160.644531 505.449219 160.644531 C 480.769531 160.644531 460.765625 140.636719 460.765625 115.917969 C 460.765625 91.238281 480.769531 71.226562 505.449219 71.226562 C 530.128906 71.226562 550.136719 91.238281 550.136719 115.917969 " fill-opacity="1" fill-rule="nonzero"/><path stroke-linecap="round" transform="matrix(0.356626, 0, 0, -0.35667, -356.266385, 1163.280321)" fill="none" stroke-linejoin="miter" d="M 2458.19571 2978.898121 C 2458.19571 2978.898121 2455.895508 3005.69767 2420.603829 3008.304246 C 2392.497545 3010.396079 2375.695113 3000.495469 2372.70485 2981.701834 C 2372.70485 2981.701834 2368.695926 2954.902285 2385.498357 2946.304963 C 2405.203426 2936.097697 2459.904432 2934.695841 2460.495913 2898.400907 C 2460.495913 2898.400907 2462.697535 2866.103453 2417.701193 2866.103453 C 2417.701193 2866.103453 2374.304038 2864.898733 2372.102416 2892.004938 " stroke="#f68f34" stroke-width="20.768" stroke-opacity="1" stroke-miterlimit="10"/><path stroke-linecap="round" transform="matrix(0.356626, 0, 0, -0.35667, -356.266385, 1163.280321)" fill="none" stroke-linejoin="miter" d="M 2397.601804 3031.599155 L 2397.601804 3006.803822 " stroke="#f68f34" stroke-width="20.768" stroke-opacity="1" stroke-miterlimit="10"/><path stroke-linecap="round" transform="matrix(0.356626, 0, 0, -0.35667, -356.266385, 1163.280321)" fill="none" stroke-linejoin="miter" d="M 2429.300785 3031.599155 L 2429.300785 3006.803822 " stroke="#f68f34" stroke-width="20.768" stroke-opacity="1" stroke-miterlimit="10"/><path stroke-linecap="round" transform="matrix(0.356626, 0, 0, -0.35667, -356.266385, 1163.280321)" fill="none" stroke-linejoin="miter" d="M 2400.394907 2866.103453 L 2400.394907 2841.297169 " stroke="#f68f34" stroke-width="20.768" stroke-opacity="1" stroke-miterlimit="10"/><path stroke-linecap="round" transform="matrix(0.356626, 0, 0, -0.35667, -356.266385, 1163.280321)" fill="none" stroke-linejoin="miter" d="M 2432.104842 2866.103453 L 2432.104842 2841.297169 " stroke="#f68f34" stroke-width="20.768" stroke-opacity="1" stroke-miterlimit="10"/><path fill="#f68f34" d="M 439.9375 58.246094 C 439.9375 90.097656 414.117188 115.917969 382.269531 115.917969 C 350.425781 115.917969 324.640625 90.097656 324.640625 58.246094 C 324.640625 26.394531 350.425781 0.589844 382.269531 0.589844 C 414.117188 0.589844 439.9375 26.394531 439.9375 58.246094 " fill-opacity="1" fill-rule="nonzero"/><path fill="#fabb34" d="M 426.957031 58.246094 C 426.957031 82.925781 406.984375 102.972656 382.269531 102.972656 C 357.59375 102.972656 337.585938 82.925781 337.585938 58.246094 C 337.585938 33.5625 357.59375 13.554688 382.269531 13.554688 C 406.984375 13.554688 426.957031 33.5625 426.957031 58.246094 " fill-opacity="1" fill-rule="nonzero"/><path stroke-linecap="round" transform="matrix(0.356626, 0, 0, -0.35667, -356.266385, 1163.280321)" fill="none" stroke-linejoin="miter" d="M 2112.803871 3140.60443 C 2112.803871 3140.60443 2110.503669 3167.403979 2075.201037 3169.999603 C 2047.094752 3172.200956 2030.303274 3162.201778 2027.302057 3143.397191 C 2027.302057 3143.397191 2023.402666 3116.597642 2040.095565 3108.00032 C 2059.800633 3097.705438 2114.50164 3096.40215 2115.104074 3060.096264 C 2115.104074 3060.096264 2117.294743 3027.79881 2072.2984 3027.79881 C 2072.2984 3027.79881 2028.999826 3026.605042 2026.798203 3053.798863 " stroke="#f68f34" stroke-width="20.768" stroke-opacity="1" stroke-miterlimit="10"/><path stroke-linecap="round" transform="matrix(0.356626, 0, 0, -0.35667, -356.266385, 1163.280321)" fill="none" stroke-linejoin="miter" d="M 2052.199011 3193.404031 L 2052.199011 3168.499179 " stroke="#f68f34" stroke-width="20.768" stroke-opacity="1" stroke-miterlimit="10"/><path stroke-linecap="round" transform="matrix(0.356626, 0, 0, -0.35667, -356.266385, 1163.280321)" fill="none" stroke-linejoin="miter" d="M 2083.897993 3193.404031 L 2083.897993 3168.499179 " stroke="#f68f34" stroke-width="20.768" stroke-opacity="1" stroke-miterlimit="10"/><path stroke-linecap="round" transform="matrix(0.356626, 0, 0, -0.35667, -356.266385, 1163.280321)" fill="none" stroke-linejoin="miter" d="M 2055.101648 3027.79881 L 2055.101648 3003.003477 " stroke="#f68f34" stroke-width="20.768" stroke-opacity="1" stroke-miterlimit="10"/><path stroke-linecap="round" transform="matrix(0.356626, 0, 0, -0.35667, -356.266385, 1163.280321)" fill="none" stroke-linejoin="miter" d="M 2086.800629 3027.79881 L 2086.800629 3003.003477 " stroke="#f68f34" stroke-width="20.768" stroke-opacity="1" stroke-miterlimit="10"/></svg>