<svg xmlns="http://www.w3.org/2000/svg" xmlns:xlink="http://www.w3.org/1999/xlink" width="1080" zoomAndPan="magnify" viewBox="0 0 810 809.999993" height="1080" preserveAspectRatio="xMidYMid meet" version="1.0"><defs><clipPath id="75f1b151b1"><path d="M 240 282 L 693.761719 282 L 693.761719 673.804688 L 240 673.804688 Z M 240 282 " clip-rule="nonzero"/></clipPath><clipPath id="d9624da958"><path d="M 195 118.054688 L 685 118.054688 L 685 444 L 195 444 Z M 195 118.054688 " clip-rule="nonzero"/></clipPath><clipPath id="d08e16bae5"><path d="M 255 118.054688 L 625 118.054688 L 625 392 L 255 392 Z M 255 118.054688 " clip-rule="nonzero"/></clipPath></defs><path fill="#7ed08d" d="M 684.296875 526.738281 C 684.296875 526.738281 691.582031 456.128906 684.296875 452.054688 C 676.988281 448.003906 674.542969 459.65625 674.542969 459.65625 L 634.953125 437.859375 C 633.441406 426.136719 630.566406 414.773438 626.394531 403.910156 C 626.394531 403.910156 641.207031 311.007812 624.070312 311.007812 C 609.714844 311.007812 584.097656 314.890625 563.605469 325.800781 C 530.195312 302.566406 487.65625 288.636719 441.355469 288.636719 C 333.792969 288.636719 246.582031 363.753906 246.582031 456.417969 C 246.582031 505.0625 270.644531 548.867188 309.039062 579.507812 C 323.921875 665.460938 336.289062 667.761719 336.289062 667.761719 L 397.160156 667.761719 C 400.730469 666.226562 407.058594 640.789062 411.230469 622.207031 C 421.054688 623.503906 431.121094 624.199219 441.355469 624.199219 C 450.101562 624.199219 458.730469 623.71875 467.164062 622.734375 C 471.335938 641.269531 477.589844 666.25 481.113281 667.761719 L 542.011719 667.761719 C 542.011719 667.761719 553.730469 665.554688 568.160156 585.742188 C 568.160156 585.742188 681.804688 557.882812 684.296875 526.738281 " fill-opacity="1" fill-rule="nonzero"/><g clip-path="url(#75f1b151b1)"><path stroke-linecap="round" transform="matrix(0.23966, 0, 0, -0.239754, -72.069324, 905.645302)" fill="none" stroke-linejoin="round" d="M 3155.996647 1580.398516 C 3155.996647 1580.398516 3186.394526 1874.905995 3155.996647 1891.899317 C 3125.500972 1908.794883 3115.297716 1860.193655 3115.297716 1860.193655 L 2950.106022 1951.107116 C 2943.798258 2000.001614 2931.802097 2047.39718 2914.394625 2092.707277 C 2914.394625 2092.707277 2976.200931 2480.197394 2904.696642 2480.197394 C 2844.797335 2480.197394 2737.907633 2464.002416 2652.40239 2418.496807 C 2512.995921 2515.405995 2335.498383 2573.505888 2142.304781 2573.505888 C 1693.491905 2573.505888 1329.597502 2260.196593 1329.597502 1873.700332 C 1329.597502 1670.806903 1430.00015 1488.100172 1590.20431 1360.299958 C 1652.304 1001.794616 1703.90705 992.16561 1703.90705 992.16561 L 1957.896411 992.16561 C 1972.793817 998.552362 1999.198409 1104.699531 2016.605881 1182.204071 C 2057.598196 1176.794883 2099.601057 1173.894777 2142.304781 1173.894777 C 2178.798536 1173.894777 2214.803316 1175.898783 2249.993141 1180.004552 C 2267.400613 1102.695524 2293.495522 998.487191 2308.197338 992.16561 L 2562.300793 992.16561 C 2562.300793 992.16561 2611.198187 1001.403591 2671.407177 1334.296753 C 2671.407177 1334.296753 3145.597801 1450.496539 3155.996647 1580.398516 Z M 3155.996647 1580.398516 " stroke="#28734b" stroke-width="50" stroke-opacity="1" stroke-miterlimit="10"/></g><path fill="#28734b" d="M 616.832031 436.972656 C 616.832031 445.339844 612.28125 452.125 606.648438 452.125 C 601.039062 452.125 596.484375 445.339844 596.484375 436.972656 C 596.484375 428.605469 601.039062 421.84375 606.648438 421.84375 C 612.28125 421.84375 616.832031 428.605469 616.832031 436.972656 " fill-opacity="1" fill-rule="nonzero"/><path stroke-linecap="round" transform="matrix(0.23966, 0, 0, -0.239754, -72.069324, 905.645302)" fill-opacity="1" fill="#ffffff" fill-rule="nonzero" stroke-linejoin="round" d="M 1950.496605 2456.100439 C 1950.496605 2456.100439 2135.605838 2510.306369 2379.391943 2456.100439 " stroke="#28734b" stroke-width="50" stroke-opacity="1" stroke-miterlimit="10"/><path stroke-linecap="round" transform="matrix(0.23966, 0, 0, -0.239754, -72.069324, 905.645302)" fill-opacity="1" fill="#ffffff" fill-rule="nonzero" stroke-linejoin="round" d="M 1335.106608 1954.805567 C 1335.106608 1954.805567 996.052081 2080.504018 1103.593749 2179.694189 C 1189.098991 2258.502148 1283.307969 2002.103377 1090.505547 1891.606048 " stroke="#28734b" stroke-width="50" stroke-opacity="1" stroke-miterlimit="10"/><path stroke-linecap="round" transform="matrix(0.23966, 0, 0, -0.239754, -72.069324, 905.645302)" fill="none" stroke-linejoin="round" d="M 2850.795415 2221.892373 C 2850.795415 2221.892373 2795.199079 2290.892106 2730.393733 2335.697127 L 2874.494352 2395.507757 " stroke="#28734b" stroke-width="50" stroke-opacity="1" stroke-miterlimit="10"/><path fill="#7ed08d" d="M 514.808594 198.875 C 514.808594 240.183594 481.328125 273.675781 440.058594 273.675781 C 398.765625 273.675781 365.285156 240.183594 365.285156 198.875 C 365.285156 157.566406 398.765625 124.082031 440.058594 124.082031 C 481.328125 124.082031 514.808594 157.566406 514.808594 198.875 " fill-opacity="1" fill-rule="nonzero"/><g clip-path="url(#d9624da958)"><path stroke-linecap="round" transform="matrix(0.23966, 0, 0, -0.239754, -72.069324, 905.645302)" fill="none" stroke-linejoin="miter" d="M 2448.793644 2947.896646 C 2448.793644 2775.600973 2309.09379 2635.907063 2136.893469 2635.907063 C 1964.595354 2635.907063 1824.8955 2775.600973 1824.8955 2947.896646 C 1824.8955 3120.192319 1964.595354 3259.902522 2136.893469 3259.902522 C 2309.09379 3259.902522 2448.793644 3120.192319 2448.793644 2947.896646 Z M 2448.793644 2947.896646 " stroke="#28734b" stroke-width="50" stroke-opacity="1" stroke-miterlimit="10"/></g><g clip-path="url(#d08e16bae5)"><path stroke-linecap="round" transform="matrix(0.23966, 0, 0, -0.239754, -72.069324, 905.645302)" fill="none" stroke-linejoin="miter" d="M 2195.195462 3007.006689 C 2195.195462 3007.006689 2191.903037 3044.30076 2142.793755 3047.99921 C 2103.692139 3050.899317 2080.302886 3037.099371 2076.195505 3010.900653 C 2076.195505 3010.900653 2070.604903 2973.606582 2093.896361 2961.598837 C 2121.392996 2947.293815 2197.493639 2945.501614 2198.406391 2894.896379 C 2198.406391 2894.896379 2201.405431 2849.895845 2138.898263 2849.895845 C 2138.898263 2849.895845 2078.493682 2848.299157 2075.396847 2886.098302 " stroke="#28734b" stroke-width="50" stroke-opacity="1" stroke-miterlimit="10"/></g><path stroke-linecap="round" transform="matrix(0.23966, 0, 0, -0.239754, -72.069324, 905.645302)" fill="none" stroke-linejoin="miter" d="M 2135.00277 3088.307437 L 2135.00277 3063.200332 " stroke="#28734b" stroke-width="50" stroke-opacity="1" stroke-miterlimit="10"/><path stroke-linecap="round" transform="matrix(0.23966, 0, 0, -0.239754, -72.069324, 905.645302)" fill="none" stroke-linejoin="miter" d="M 2138.898263 2849.895845 L 2138.898263 2815.404125 " stroke="#28734b" stroke-width="50" stroke-opacity="1" stroke-miterlimit="10"/></svg>